PathFileType	4	(X/Y/Z)	PS_ngait_og_ss1.trc	
DataRate	CameraRate	NumFrames	NumMarkers	Units	OrigDataRate	OrigDataStartFrame	OrigNumFrames	
120.00	120.00	11	36	mm	120.00	700	132	
Frame#	Time	Sternum			Neck			RShoulder			LShoulder			Xiphoid			Thoracic			RAsis			LAsis			RPsis			LPsis			LThighSuperior			LThighInferior			LThighLateral			LShankSuperior			LShankInferior			LShankLateral			RThighSuperior			RThighInferior			RThighLateral			RShankSuperior			RShankInferior			RShankLateral			RHeel			RToe			RMidfootLateral			RHindfoot			LHeel			LToe			LMidfootMedial			LMidfootLateral			LHindfoot			LMidfootSuperior			LToeMedial			LToeLateral			Sacral			RMidfootSuperior			
		X1	Y1	Z1	X2	Y2	Z2	X3	Y3	Z3	X4	Y4	Z4	X5	Y5	Z5	X6	Y6	Z6	X7	Y7	Z7	X8	Y8	Z8	X9	Y9	Z9	X10	Y10	Z10	X11	Y11	Z11	X12	Y12	Z12	X13	Y13	Z13	X14	Y14	Z14	X15	Y15	Z15	X16	Y16	Z16	X17	Y17	Z17	X18	Y18	Z18	X19	Y19	Z19	X20	Y20	Z20	X21	Y21	Z21	X22	Y22	Z22	X23	Y23	Z23	X24	Y24	Z24	X25	Y25	Z25	X26	Y26	Z26	X27	Y27	Z27	X28	Y28	Z28	X29	Y29	Z29	X30	Y30	Z30	X31	Y31	Z31	X32	Y32	Z32	X33	Y33	Z33	X34	Y34	Z34	X35	Y35	Z35	X36	Y36	Z36	

83	0.683	864.62604	1431.01074	185.86726	701.66925	1530.09607	189.85460	742.87244	1511.28540	348.91156	735.75232	1525.34216	50.41592	899.21161	1271.95251	188.94217	621.87421	1311.20496	188.29941	820.12299	1010.21350	321.22748	819.01807	997.33057	47.31486	629.74365	1033.44104	242.14659	622.94525	1021.99316	137.97772	748.72260	817.72656	0.54510	751.02142	583.54242	24.89841	836.70215	683.41235	69.65484	642.99152	384.88275	20.38684	494.14032	258.03851	58.81816	604.88495	301.99136	97.85400	812.17236	820.15802	362.39471	863.20660	587.53638	330.56595	903.45215	756.70599	282.53003	865.38306	427.79898	335.42422	881.71686	176.50978	293.63696	924.60876	307.91089	252.71432	798.06323	65.29110	240.66826	1114.48767	51.83749	240.17731	1016.38745	31.10994	309.92905	962.93219	31.95166	303.26245	339.06412	222.97485	110.95995	570.65454	27.51568	73.34769	484.68747	60.48384	136.55098	466.89502	58.56583	22.66171	430.70932	91.72347	37.78655	505.64520	122.20573	84.35027	516.70074	39.45570	129.84837	507.54218	43.84882	26.32900	626.34442	1027.71704	190.06215			 
84	0.692	873.50610	1431.81421	186.81453	710.77838	1530.83289	191.61383	752.35876	1511.97644	350.16373	744.53369	1526.10828	51.89093	908.23053	1272.75293	189.86357	630.60779	1311.82104	189.88361	829.51208	1011.83282	322.53870	828.33472	997.56934	48.80508	638.96509	1033.83191	243.50941	632.19977	1022.09338	139.37248	761.85370	817.67822	2.04313	769.43768	583.67596	24.72653	852.70190	685.53979	70.28438	660.75916	387.15411	19.96108	509.24579	264.85168	58.57604	623.26495	307.41455	98.79829	817.97400	819.81830	363.66367	868.99329	587.15289	331.30981	912.27203	756.18115	285.38950	869.98468	427.45377	336.13611	883.20093	176.00656	293.69763	928.04932	307.42664	253.54189	798.13397	65.42446	240.82425	1114.88342	51.16327	240.25557	1016.61694	31.05306	310.22281	962.71539	31.71984	303.30701	356.25964	238.95154	112.30272	574.48053	23.78421	73.24434	492.08972	66.97292	136.32639	473.50702	65.73066	23.28262	438.86163	102.22768	37.98705	515.76843	127.82138	83.89397	522.17383	42.25262	129.53670	513.45361	46.15837	25.95994	635.58246	1027.96265	191.44095			 
85	0.700	882.33228	1432.52563	187.65468	719.62262	1531.53369	193.11952	761.83771	1512.69312	351.46945	752.99762	1526.92847	53.10816	917.03900	1273.31360	190.58029	639.44446	1312.38843	191.32214	838.94818	1013.24164	323.77686	837.53394	997.79236	50.12597	648.20117	1034.17834	244.94185	641.38092	1022.20941	140.68326	774.91541	817.77502	3.24368	787.53149	584.14893	24.77853	868.32910	687.14795	70.34549	678.79254	389.57108	19.69734	524.38110	271.91931	58.52296	642.28699	313.11392	100.02446	823.60840	819.40424	365.03275	874.61273	586.69507	332.15381	921.26605	755.50128	288.71069	874.06757	427.49023	337.06882	884.71649	175.76744	293.80261	931.07123	307.08160	253.85094	798.19141	65.58926	240.95619	1115.27454	50.44777	240.31645	1016.77545	30.86517	310.48886	963.32147	32.46325	303.70627	373.80545	254.08167	114.24245	579.79242	21.51751	73.27689	500.67383	73.11448	136.16534	482.60629	73.74771	23.55261	448.54059	112.10172	37.62365	526.98602	134.06213	84.16634	529.03162	45.08882	129.07684	521.63824	49.60059	25.42153	644.79108	1028.19385	192.81255			 
86	0.708	891.16266	1433.21423	188.44792	728.31305	1532.13965	194.53101	771.20575	1513.37183	352.63794	761.39636	1527.69324	54.33352	925.85541	1274.01953	191.19113	648.19800	1313.12158	192.61014	848.16510	1014.65375	325.04462	846.64337	998.08447	51.35577	657.29596	1034.55176	246.23668	650.50555	1022.40997	141.96950	787.36523	818.76001	4.07990	805.23688	584.98004	24.87413	883.74451	689.04529	70.46037	697.01782	392.12057	19.59821	539.61560	279.03265	58.97419	661.76721	318.92831	101.44283	829.03717	819.05029	366.56662	880.02673	586.29718	333.16260	929.60663	754.60638	292.30914	879.51953	427.12952	337.88577	886.36267	175.47632	294.10809	934.05597	306.47763	254.33145	798.29993	65.81651	241.11359	1115.48108	49.89345	240.47041	1016.76709	31.16448	311.62924	962.84521	31.63653	303.53809	392.37439	265.45181	116.96164	589.83453	25.01542	71.67030	512.32806	79.26372	135.76324	494.40729	81.87106	22.57737	460.82489	121.09348	36.53979	539.71808	140.18069	84.29532	540.09088	49.85641	127.83430	532.79364	55.98015	24.25490	653.90076	1028.48083	194.10309			 
87	0.717	899.84430	1433.98999	189.15668	736.76031	1532.74524	195.64285	780.52057	1514.03064	353.67752	769.61908	1528.32007	55.36374	934.67224	1274.81604	191.80128	656.91730	1313.75427	193.88091	857.31647	1015.92572	326.31195	855.74646	998.32593	52.56738	666.36047	1034.96118	247.50232	659.63367	1022.67645	143.22760	800.55725	818.84222	5.12115	822.53717	586.38104	25.00171	899.01746	691.53857	70.69372	715.37189	394.78522	19.65958	555.40167	285.88605	59.42218	681.49786	324.67612	102.94305	834.48804	819.23846	368.32932	885.46252	586.44153	334.40021	937.60913	753.85773	296.01944	884.53302	426.88455	338.79617	887.97833	175.28056	294.34415	936.71423	306.03201	254.61563	798.36713	66.01173	241.21144	1115.76831	49.53431	240.49362	1017.34082	31.14067	311.34668	962.71570	31.43015	303.43723	410.93182	273.22879	119.63888	604.06689	33.19244	69.81981	527.10901	86.37584	134.75281	508.50763	90.01305	21.78134	475.25162	128.95692	36.51196	554.21863	147.90993	83.83415	554.63391	57.31845	126.56679	546.61523	64.46291	23.10618	662.99707	1028.81885	195.36496			 
88	0.725	908.45923	1434.81067	189.83171	745.09344	1533.31226	196.64888	789.73157	1514.73779	354.74951	777.63324	1528.90295	56.28620	943.50195	1275.72241	192.36349	665.61127	1314.47058	195.21068	866.31476	1017.34833	327.67648	864.68134	998.42737	53.72649	675.29297	1035.53113	248.82739	668.61230	1023.10950	144.38879	812.55328	819.81842	6.04075	839.34076	587.99835	25.41327	913.98395	694.49976	71.03770	733.80090	397.54388	19.87151	571.63654	291.95044	59.83654	701.26141	330.16571	104.40275	840.17053	819.66638	370.13077	891.13031	586.82562	335.67661	945.35974	753.12457	299.26804	889.26227	426.60095	339.60794	889.43158	175.10280	294.59579	939.22937	305.50610	254.93794	798.45630	66.16660	241.30919	1115.96301	49.00018	240.56023	1017.24506	30.47218	311.06808	963.31171	31.41920	303.58844	428.10916	279.00858	121.69487	620.00177	39.84732	67.69727	543.35541	92.53024	133.68512	523.96954	97.40161	20.79618	490.76801	136.37672	35.87015	569.98956	154.50911	83.34586	570.91418	63.45401	124.96013	562.31915	71.63653	21.62276	671.95264	1029.32031	196.60809			 
89	0.733	917.09222	1435.69458	190.50052	753.35748	1534.08411	197.60385	798.77844	1515.44934	355.71201	785.63226	1529.57349	57.12891	952.21844	1276.69055	192.80035	674.19012	1315.32019	196.35414	875.31555	1018.14417	328.65585	873.55957	999.15479	54.83054	684.21252	1035.97083	249.92300	677.49658	1023.57098	145.57681	824.43469	821.18286	6.94492	855.87671	590.27722	25.68589	928.31067	697.79132	71.10496	752.26013	400.37207	20.21901	588.74963	296.94272	60.22607	720.84320	335.20587	105.69621	846.23981	820.04620	371.85931	897.18451	587.16168	336.88004	952.89368	752.61127	302.06216	893.68140	426.58337	340.40228	890.80884	175.04973	294.89450	941.56305	304.65714	255.13593	798.44275	66.39224	241.66930	1116.16528	48.41713	240.53043	1017.19086	30.16981	311.05893	962.78613	31.39391	303.61914	444.54114	284.15552	122.73795	636.55042	44.52517	66.06371	560.10754	97.42950	133.01788	539.85425	103.45164	19.91451	506.96439	142.57138	35.40858	586.65192	159.46648	83.04922	587.82001	68.01548	123.67840	578.86914	76.95160	20.43369	680.85455	1029.77087	197.74991			 
90	0.742	925.71802	1436.62122	190.98975	761.75879	1534.93506	198.48508	807.84039	1516.28723	356.63928	793.50531	1530.28687	57.84020	960.94244	1277.73926	193.21704	682.68152	1316.32129	197.46571	884.23480	1018.99457	329.82300	882.39294	1000.09338	55.90484	693.08472	1036.70447	251.17752	686.32892	1024.26331	146.71526	836.28381	822.57129	8.25864	872.18958	592.81213	26.10452	942.42725	701.35999	71.21938	770.71295	403.24265	20.68294	606.43323	300.95905	60.66373	740.04504	339.61603	106.70311	852.40179	820.12183	373.36813	903.33173	587.19354	337.86383	960.11969	752.18207	303.86603	897.62885	426.50986	340.84784	891.95367	175.12199	295.03891	944.17297	304.85910	255.80435	798.53851	66.48229	241.42639	1116.29980	48.02102	240.59096	1017.27295	29.99451	311.22971	962.58685	31.22459	303.57138	460.07553	288.74976	123.19199	653.05725	48.51892	64.20009	577.13788	101.34639	132.43735	557.28503	108.09728	19.37832	524.06860	147.45137	35.08577	603.96259	163.54842	82.97070	604.83893	71.68295	122.37502	595.32086	81.84634	19.29469	689.70679	1030.48389	198.94640			 
91	0.750	934.17627	1437.66614	191.41328	770.18292	1536.01257	199.25276	816.81244	1517.17957	357.49298	801.37555	1530.98047	58.47932	969.48364	1278.89465	193.44511	691.15576	1317.30090	198.62175	892.81647	1019.73572	330.71280	891.12494	1001.21277	56.87062	701.68518	1037.42395	252.01738	695.04382	1025.12805	147.71190	847.50244	824.13593	9.39563	888.18463	595.63525	26.31158	956.44446	705.14355	71.41272	789.13013	406.12625	21.24085	624.62805	304.03711	61.36489	758.69873	343.23682	107.31711	860.10907	820.82867	374.96347	909.10101	587.04376	338.61484	967.10522	752.27161	304.90869	901.08130	426.67178	341.29703	892.80511	175.32651	295.08817	946.64685	304.41690	256.37482	798.93396	66.67384	241.04630	1116.50415	47.55394	240.64105	1017.33417	29.99767	311.31738	962.58588	31.20350	303.55804	475.21747	290.81894	122.73184	671.81665	51.52295	63.47606	595.82526	104.35704	132.07805	575.15594	111.98862	18.83034	542.79620	150.68791	35.22941	622.23035	166.66797	82.79076	623.65741	74.56567	121.74802	614.10474	85.07333	18.70543	698.36450	1031.27600	199.86464			 
92	0.758	942.58020	1438.76599	191.76999	778.83795	1537.08899	200.03242	825.74451	1518.22168	358.24002	809.33954	1531.79346	59.11184	977.90479	1280.03711	193.61986	699.59357	1318.26477	199.78625	901.49310	1021.12848	331.45227	899.79108	1002.16321	57.75672	710.28607	1038.21228	252.81203	703.74664	1026.12451	148.66095	852.50604	829.93799	5.75250	904.05756	598.27405	26.64437	970.96472	709.64667	72.36722	807.48901	408.99188	21.86782	643.29352	306.12811	61.75019	776.67871	345.94028	107.45457	867.34644	821.21393	375.99435	914.31213	586.84741	339.24921	973.79895	751.90314	305.02017	904.03650	426.74905	341.66306	893.57709	175.56267	295.24661	948.74554	303.96399	256.76019	799.20599	67.14183	241.37724	1116.58179	47.14346	240.60165	1017.34448	29.87615	311.36002	963.65906	31.37806	303.74628	492.02631	290.11975	122.76726	692.12109	54.59230	62.92512	616.00342	106.57718	132.02768	595.39075	114.32562	18.71083	562.46722	152.84651	35.39353	641.68268	169.29710	82.82296	643.99670	77.02477	121.46342	634.04523	87.98049	18.50527	707.01636	1032.16833	200.73650			 
93	0.767	950.96893	1439.89893	192.11786	787.42932	1538.14709	200.71590	834.75897	1519.40369	358.95004	817.23834	1532.66479	59.71259	986.27716	1281.03809	193.89304	708.01550	1319.32715	200.96120	910.09808	1021.79846	332.43759	908.43530	1004.21613	58.51773	718.86145	1038.97327	253.88628	712.35382	1027.07251	149.63071	854.88452	838.03845	-0.27500	919.82349	601.01501	26.97020	984.53357	713.79523	72.78040	825.77283	411.80737	22.53731	662.07373	307.87219	61.97337	793.91608	347.64038	107.06325	874.26221	821.69965	376.78223	918.76807	586.79340	339.76715	980.04486	751.62976	305.51462	905.87256	426.78207	341.74692	894.29651	175.73424	295.24149	949.11530	302.24777	256.10745	799.28491	67.56947	241.61559	1116.59473	46.79610	240.54350	1017.41315	29.84891	311.34912	962.93774	31.51313	303.71487	509.93021	287.85657	122.77395	714.32092	57.15213	62.75932	637.38507	108.14826	132.23218	616.87585	115.43050	18.98437	583.29498	153.67009	35.65101	662.11652	171.08202	83.20811	665.98999	78.85938	121.40074	655.69867	89.74799	18.46888	715.60767	1033.02283	201.75848			 
